# xmcd
#
# Track frame offsets:
#	150
#	14795
#	33132
#	53347
#	74892
#	97977
#	115870
#	134320
#	158955
#	177990
#	197152
#	230752
#	247840
#
# Disc length: 3578 seconds
#
# Revision: 1
# Processed by: cddbd v1.4PL0 Copyright (c) Steve Scherf et al.
# Submitted via: CDmax 1.8
#
DISCID=b00df80d
DTITLE=Mavis Staples - The Voice
DYEAR=1995
DGENRE=R&b
TTITLE0=Blood Is Thicker Than Time
TTITLE1=I'll Be Right There
TTITLE2=Why
TTITLE3=House in Order
TTITLE4=All Because of You
TTITLE5=A Man Called Jesus
TTITLE6=Kain't Turn Back
TTITLE7=Come Home
TTITLE8=You Will Be Moved
TTITLE9=The Voice
TTITLE10=The Undertaker
TTITLE11=Melody Cool
TTITLE12=Positivity
EXTD=
EXTT0=
EXTT1=
EXTT2=
EXTT3=
EXTT4=
EXTT5=
EXTT6=
EXTT7=
EXTT8=
EXTT9=
EXTT10=
EXTT11=
EXTT12=
PLAYORDER=
